# xmcd CD database file
#
# Track frame offsets:
#	150
#	26890
#	44951
#	75180
#	95633
#	108884
#	135849
#	160900
#	186486
#	209941
#	225383
#
# Disc length: 3413 seconds
#
# Revision: 2
# Processed by: cddbd v1.5.1PL0 Copyright (c) Steve Scherf et al.
# Submitted via: CDex 1.51
#
DISCID=940d530b
DTITLE=Innes Sibun - Superstitious
DYEAR=1995
DGENRE=misc
TTITLE0=Judgement Day
TTITLE1=Promises
TTITLE2=I'll Be There
TTITLE3=So Little Time
TTITLE4=The Supernatural
TTITLE5=You Could Be Wrong
TTITLE6=Come Back Crazy
TTITLE7=Lonely Nights
TTITLE8=Fishermans Wharf
TTITLE9=Take Me Home
TTITLE10=Obsession
EXTD=YEAR: 1995
EXTT0=
EXTT1=
EXTT2=
EXTT3=
EXTT4=
EXTT5=
EXTT6=
EXTT7=
EXTT8=
EXTT9=
EXTT10=
PLAYORDER=
